<?xml version="1.0" encoding="utf-8"?>
<!-- Generator: Adobe Illustrator 24.0.2, SVG Export Plug-In . SVG Version: 6.00 Build 0)  -->
<!DOCTYPE svg PUBLIC "-//W3C//DTD SVG 1.1//EN" "http://www.w3.org/Graphics/SVG/1.1/DTD/svg11.dtd" [
	<!ENTITY ns_extend "http://ns.adobe.com/Extensibility/1.0/">
	<!ENTITY ns_ai "http://ns.adobe.com/AdobeIllustrator/10.0/">
	<!ENTITY ns_graphs "http://ns.adobe.com/Graphs/1.0/">
	<!ENTITY ns_vars "http://ns.adobe.com/Variables/1.0/">
	<!ENTITY ns_imrep "http://ns.adobe.com/ImageReplacement/1.0/">
	<!ENTITY ns_sfw "http://ns.adobe.com/SaveForWeb/1.0/">
	<!ENTITY ns_custom "http://ns.adobe.com/GenericCustomNamespace/1.0/">
	<!ENTITY ns_adobe_xpath "http://ns.adobe.com/XPath/1.0/">
]>
<svg version="1.1" id="Layer_1" xmlns:x="&ns_extend;" xmlns:i="&ns_ai;" xmlns:graph="&ns_graphs;"
	 xmlns="http://www.w3.org/2000/svg" xmlns:xlink="http://www.w3.org/1999/xlink" x="0px" y="0px" viewBox="0 0 288 195.6110077"
	 style="enable-background:new 0 0 288 195.6110077;" xml:space="preserve">
<metadata>
	<sfw  xmlns="&ns_sfw;">
		<slices></slices>
		<sliceSourceBounds  bottomLeftOrigin="true" height="16383" width="16383" x="-7795" y="-8498"></sliceSourceBounds>
	</sfw>
</metadata>
<g>
	<g>
		<g>
			<g>
				<polygon style="fill:#002169;" points="93.5149002,137.3957214 184.6903076,137.3957214 139.102066,68.8450851 				"/>
				<g>
					<g>
						<g>
							<polygon style="fill:#E1251B;" points="93.5990295,0 0,0 93.5149002,137.3957214 139.102066,68.8450851 							"/>
							<polygon style="fill:#0082CA;" points="184.9847717,0 139.102066,68.8450851 184.6903076,137.3957214 278.5838013,0 							
								"/>
						</g>
					</g>
				</g>
			</g>
			<g>
				<polygon style="fill:#002169;" points="39.7110634,152.8805542 28.7555618,180.814209 17.6536274,152.8805542 
					4.2561684,152.8805542 22.1415672,195.5188141 34.8022118,195.5188141 52.5193481,152.8805542 				"/>
				<rect x="83.0233231" y="152.5645142" style="fill:#002169;" width="11.8398275" height="43.0179329"/>
				<rect x="170.4809265" y="152.5645142" style="fill:#002169;" width="11.8391552" height="43.0179367"/>
				<polygon style="fill:#002169;" points="121.7009583,162.0023041 115.381424,184.2269135 108.9561844,162.0023041 
					96.4637985,161.9807281 107.6715622,195.5824585 122.0806274,195.5824585 133.2247467,162.0023041 				"/>
				<rect x="186.0590515" y="162.0023041" style="fill:#002169;" width="11.860321" height="33.5801544"/>
				<rect x="186.0590515" y="152.5645142" style="fill:#002169;" width="11.860321" height="6.3195362"/>
				<path style="fill:#002169;" d="M224.8003235,162.0023041h-23.1101532v33.5801544h11.8193359v-26.6285706h8.8898468v26.6285706
					h11.860321v-25.0279236C234.2596741,163.8348389,230.0035095,162.0023041,224.8003235,162.0023041z"/>
				<path style="fill:#002169;" d="M158.1038208,195.5824585c5.7726746,0,8.6374512-2.781723,8.6374512-7.9212646
					c0-4.5722046,0.0215759-17.4011078,0.0215759-17.4011078c0-6.8674622-4.5506287-8.257782-8.7852325-8.257782h-15.4412842
					c-4.2345886,0-8.7852173,1.3903198-8.7852173,8.257782c0,0,0.0215759,12.8289032,0.0215759,17.4011078
					c0,5.1395416,2.8647614,7.9212646,8.6579437,7.9212646H158.1038208z M145.7171326,188.6092834v-19.5076141l9.100174-0.1898346
					v19.6974487H145.7171326z"/>
				<path style="fill:#002169;" d="M79.1468277,170.5761108c0-6.741272-4.2766647-8.5738068-10.0903397-8.5738068H52.139679
					l-2.6328697,6.3195343c3.2445679,0,17.8433342,0,17.8433342,0v4.7825165H55.3841171
					c-4.8666573,0-9.4171524,1.600647-9.4171524,8.573822c0,4.0652618,0,6.5309448,0,6.5309448
					c0,5.0133514,2.9919128,7.3733368,9.1431885,7.3733368c4.6983948,0,24.0366745-0.0215759,24.0366745-0.0215759V170.5761108z
					 M67.3501434,188.6092834H57.3007965v-9.1853943h10.0493469V188.6092834z"/>
				<path style="fill:#002169;" d="M237.7565002,171.0183411c0,4.5085602,0,15.9687195,0,15.9687195
					c0,3.0751038,1.074295,4.9087219,1.7904816,5.729538c1.5380859,1.769989,3.9822083,2.86586,8.3634949,2.86586h18.8755646
					l1.6859741-6.3411102c-3.2661438,0-18.9186859,0-18.9186859,0v-5.4145966h12.5558929
					c5.2031555,0,8.4055481-1.9587402,8.4055481-7.7939911c0-4.06633,0-6.2569733,0-6.2569733
					c0-6.0887146-4.0231934-7.7734833-9.3115845-7.7734833c-3.0965271,0-8.0054016,0-13.3768463,0
					C241.9069672,162.0023041,237.7565002,164.5510406,237.7565002,171.0183411z M249.5533295,168.9538879h10.0492096v8.5533295
					h-10.0492096V168.9538879z"/>
			</g>
		</g>
	</g>
	<path style="fill:#002169;" d="M197.0332794,132.3464966v-1.6017303h5.9193878v1.6017303h-2.0008087v5.0974731h-1.9382629
		v-5.0974731H197.0332794z M206.3233032,130.7447662l1.2220459,3.8560028l1.2004852-3.8560028h2.7806396v6.6992035h-1.7689056
		v-4.8450928l-1.453949,4.8450928h-1.5165253l-1.453949-4.8235168v4.8235168h-1.7904816v-6.6992035H206.3233032z"/>
	<path style="fill:#002169;" d="M273.5068054,190.5124512v-1.600647h5.9193726v1.600647h-2.0017395v5.0985565h-1.9588928v-5.0985565
		H273.5068054z M282.796814,188.9118042l1.2220764,3.8549347l1.20047-3.8549347H288v6.6992035h-1.769989v-4.8461609
		l-1.4744568,4.8461609h-1.4958801l-1.4530029-4.8461609v4.8461609h-1.7904968v-6.6992035H282.796814z"/>
</g>
</svg>
